<svg width="25" height="26" viewBox="0 0 25 26" fill="none" xmlns="http://www.w3.org/2000/svg">
<g clip-path="url(#clip0_229_1768)">
<path d="M3.37668 4.74663C4.57999 3.54311 6.19393 2.83917 7.89465 2.77606C9.59537 2.71296 11.257 3.29536 12.5462 4.40641C13.8343 3.29721 15.4937 2.71547 17.1924 2.77763C18.8911 2.8398 20.5036 3.54129 21.7071 4.74166C22.9107 5.94204 23.6164 7.55271 23.683 9.25121C23.7496 10.9497 23.1722 12.6107 22.0664 13.9017L14.0119 21.9821C13.6418 22.3522 13.1455 22.5689 12.6225 22.5885C12.0994 22.6081 11.5883 22.4293 11.1915 22.0879L11.0774 21.9831L3.02401 13.9017C1.91878 12.6118 1.34111 10.9524 1.40649 9.25504C1.47188 7.55772 2.1755 5.94761 3.37668 4.74663ZM4.84339 6.21335C3.99515 7.06183 3.50619 8.20434 3.47799 9.40378C3.44979 10.6032 3.88452 11.7674 4.69195 12.6548L4.84339 12.8146L12.5452 20.5164L18.0459 15.0147L14.3791 11.3479L13.2796 12.4474C12.9907 12.7364 12.6476 12.9658 12.2701 13.1222C11.8926 13.2787 11.4879 13.3593 11.0792 13.3594C10.2538 13.3596 9.46218 13.0319 8.87841 12.4484C8.29464 11.8649 7.96657 11.0734 7.96638 10.2481C7.96618 9.42268 8.29388 8.63102 8.87737 8.04725L11.0577 5.86586C10.19 5.17334 9.10392 4.8127 7.99432 4.84863C6.88472 4.88455 5.82423 5.31471 5.00314 6.0619L4.84339 6.21335ZM13.6457 9.14677C13.8403 8.95231 14.104 8.84307 14.3791 8.84307C14.6541 8.84307 14.9179 8.95231 15.1125 9.14677L19.5126 13.5469L20.247 12.8146C21.1094 11.9527 21.6004 10.7877 21.615 9.56849C21.6295 8.34932 21.1665 7.17285 20.3248 6.29068C19.4832 5.40851 18.3297 4.89068 17.1112 4.84793C15.8927 4.80517 14.7059 5.24089 13.8044 6.0619L13.6457 6.21335L10.3451 9.51397C10.1653 9.69364 10.0578 9.93307 10.0429 10.1868C10.0279 10.4406 10.1067 10.6909 10.2642 10.8904L10.3451 10.9807C10.5248 11.1605 10.7642 11.268 11.018 11.2829C11.2717 11.2979 11.5221 11.2191 11.7216 11.0616L11.8118 10.9807L13.6457 9.14677Z" fill="black"/>
</g>
<defs>
<clipPath id="clip0_229_1768">
<rect width="24.8947" height="24.8947" fill="white" transform="translate(0.0979004 0.111023)"/>
</clipPath>
</defs>
</svg>
